<svg xmlns="http://www.w3.org/2000/svg" xmlns:xlink="http://www.w3.org/1999/xlink" width="180" zoomAndPan="magnify" viewBox="0 0 375 135.000003" height="65" preserveAspectRatio="xMidYMid meet" version="1.0"><defs><g/><clipPath id="8a37d2997d"><path d="M 20 10.8125 L 92.894531 10.8125 L 92.894531 115 L 20 115 Z M 20 10.8125 " clip-rule="nonzero"/></clipPath><clipPath id="e09c638175"><path d="M 12.488281 105 L 30 105 L 30 123 L 12.488281 123 Z M 12.488281 105 " clip-rule="nonzero"/></clipPath></defs><path fill="#222222" d="M 61.089844 114.511719 C 61.089844 92.34375 43.105469 74.363281 20.9375 74.363281 L 20.9375 90.175781 C 34.347656 90.175781 45.277344 101.023438 45.277344 114.511719 Z M 61.089844 114.511719 " fill-opacity="1" fill-rule="evenodd"/><g clip-path="url(#8a37d2997d)"><path fill="#222222" d="M 71.550781 42.96875 C 73.414062 44.519531 74.421875 46.921875 74.34375 49.328125 C 74.1875 52.347656 72.40625 54.984375 69.613281 56.226562 C 67.289062 57.308594 64.578125 57.078125 62.40625 55.835938 C 50.703125 47.542969 36.363281 42.660156 20.9375 42.660156 L 20.9375 58.472656 C 51.863281 58.472656 76.898438 83.507812 76.898438 114.433594 L 92.710938 114.433594 C 92.710938 97.070312 86.589844 81.183594 76.359375 68.78125 C 81.242188 66.144531 84.960938 61.882812 86.976562 56.84375 C 87.984375 54.363281 88.605469 51.730469 88.683594 48.9375 C 88.992188 40.957031 85.347656 33.4375 78.992188 28.785156 C 62.40625 17.546875 42.484375 10.960938 20.9375 10.960938 L 20.9375 26.769531 C 39.773438 26.769531 57.214844 32.738281 71.550781 42.816406 Z M 71.550781 42.96875 " fill-opacity="1" fill-rule="evenodd"/></g><g clip-path="url(#e09c638175)"><path fill="#5e17eb" d="M 20.9375 105.984375 C 16.289062 105.984375 12.488281 109.785156 12.488281 114.433594 C 12.488281 119.085938 16.289062 122.882812 20.9375 122.882812 C 25.589844 122.882812 29.386719 119.085938 29.386719 114.433594 C 29.386719 109.785156 25.589844 105.984375 20.9375 105.984375 Z M 20.9375 105.984375 " fill-opacity="1" fill-rule="evenodd"/></g><g fill="#222222" fill-opacity="1"><g transform="translate(129.402875, 83.341431)"><g><path d="M 27.929688 -5.894531 L 23.78125 -11.15625 C 24.082031 -11.382812 24.386719 -11.636719 24.691406 -11.890625 C 27.09375 -14.015625 28.609375 -17 28.609375 -20.441406 C 28.609375 -23.90625 27.09375 -26.96875 24.691406 -29.191406 C 22.285156 -31.394531 19.046875 -32.734375 15.582031 -32.734375 L 5.71875 -32.734375 C 4.679688 -32.734375 4.023438 -32.582031 3.644531 -32.304688 C 3.238281 -32 3.113281 -31.597656 3.113281 -31.089844 C 3.113281 -30.710938 3.164062 -30.28125 3.289062 -29.851562 C 3.390625 -29.394531 3.441406 -28.941406 3.464844 -28.511719 L 3.464844 -3.59375 C 3.464844 -2.480469 3.894531 -1.492188 4.605469 -0.785156 C 5.3125 -0.0507812 6.324219 0.378906 7.4375 0.378906 C 8.550781 0.378906 9.535156 -0.0507812 10.246094 -0.785156 C 10.953125 -1.492188 11.382812 -2.480469 11.382812 -3.59375 L 11.382812 -8.5 L 15.582031 -8.5 C 15.988281 -8.5 16.394531 -8.523438 16.796875 -8.550781 L 21.933594 -1.113281 C 22.617188 -0.277344 23.527344 0.226562 24.488281 0.328125 C 25.449219 0.457031 26.4375 0.203125 27.320312 -0.480469 C 28.207031 -1.164062 28.6875 -2.101562 28.8125 -3.085938 C 28.914062 -4.074219 28.636719 -5.085938 27.929688 -5.894531 Z M 11.230469 -15.304688 L 11.230469 -25.652344 L 15.582031 -25.652344 C 17.023438 -25.652344 18.367188 -25.019531 19.328125 -24.03125 C 20.289062 -23.019531 20.84375 -21.65625 20.84375 -20.210938 C 20.84375 -18.769531 20.289062 -17.53125 19.328125 -16.671875 C 18.367188 -15.8125 17.023438 -15.304688 15.582031 -15.304688 Z M 11.230469 -15.304688 "/></g></g></g><g fill="#222222" fill-opacity="1"><g transform="translate(158.190988, 83.341431)"><g><path d="M 27.828125 -3.59375 C 27.828125 -4.78125 27.371094 -5.769531 26.636719 -6.476562 C 25.90625 -7.160156 24.867188 -7.5625 23.730469 -7.5625 L 11.382812 -7.5625 L 11.382812 -12.394531 L 20.617188 -12.394531 C 22.210938 -12.394531 23.449219 -13.253906 24.03125 -14.699219 C 24.539062 -15.910156 24.3125 -17.175781 23.628906 -18.113281 C 22.917969 -19.023438 21.832031 -19.679688 20.617188 -19.679688 L 11.382812 -19.679688 L 11.382812 -24.917969 L 23.804688 -24.917969 C 25.550781 -24.917969 26.6875 -25.753906 27.269531 -26.890625 C 27.851562 -28.003906 27.828125 -29.394531 27.246094 -30.535156 C 26.636719 -31.648438 25.5 -32.480469 23.78125 -32.480469 L 5.617188 -32.480469 C 4.605469 -32.480469 3.996094 -32.304688 3.617188 -32.027344 C 3.210938 -31.722656 3.113281 -31.316406 3.113281 -30.8125 C 3.113281 -30.382812 3.164062 -29.953125 3.289062 -29.496094 C 3.390625 -29.042969 3.464844 -28.585938 3.492188 -28.15625 L 3.492188 -3.820312 C 3.492188 -2.605469 3.921875 -1.542969 4.65625 -0.808594 C 5.363281 -0.0742188 6.425781 0.378906 7.640625 0.378906 L 23.753906 0.378906 C 24.867188 0.378906 25.90625 -0.0507812 26.636719 -0.757812 C 27.371094 -1.46875 27.828125 -2.453125 27.828125 -3.59375 Z M 27.828125 -3.59375 "/></g></g></g><g fill="#222222" fill-opacity="1"><g transform="translate(186.346662, 83.341431)"><g><path d="M 32.179688 -28.484375 C 32.179688 -30.128906 31.648438 -31.140625 30.761719 -31.722656 C 29.875 -32.304688 28.6875 -32.457031 27.296875 -32.457031 C 25.804688 -32.457031 24.96875 -32.355469 24.488281 -32.101562 C 24.007812 -31.847656 23.90625 -31.417969 23.90625 -30.8125 C 23.90625 -30.382812 23.957031 -29.953125 24.082031 -29.496094 C 24.210938 -29.042969 24.261719 -28.558594 24.261719 -28.078125 L 24.3125 -14.546875 L 10.699219 -30.710938 C 9.917969 -31.519531 9.308594 -31.949219 8.550781 -32.179688 C 7.792969 -32.40625 6.929688 -32.457031 5.71875 -32.457031 C 4.679688 -32.457031 4.023438 -32.304688 3.644531 -32.027344 C 3.238281 -31.722656 3.113281 -31.316406 3.113281 -30.835938 C 3.113281 -30.40625 3.164062 -29.976562 3.289062 -29.546875 C 3.390625 -29.117188 3.441406 -28.660156 3.464844 -28.230469 L 3.464844 -3.566406 C 3.464844 -2.453125 3.894531 -1.46875 4.605469 -0.757812 C 5.3125 -0.0507812 6.300781 0.378906 7.4375 0.378906 C 8.550781 0.378906 9.511719 -0.0507812 10.21875 -0.757812 C 10.902344 -1.46875 11.308594 -2.453125 11.308594 -3.59375 L 11.308594 -6.980469 C 11.308594 -8.171875 11.308594 -9.359375 11.332031 -10.550781 L 11.332031 -14.117188 C 11.332031 -15.28125 11.332031 -16.417969 11.332031 -17.503906 L 25.144531 -1.136719 C 25.953125 -0.203125 27.066406 0.378906 28.257812 0.378906 C 29.472656 0.378906 30.457031 -0.125 31.140625 -0.9375 C 31.824219 -1.746094 32.179688 -2.808594 32.179688 -3.996094 Z M 32.179688 -28.484375 "/></g></g></g><g fill="#222222" fill-opacity="1"><g transform="translate(220.649552, 83.341431)"><g><path d="M 28.964844 -28.511719 C 28.964844 -29.621094 28.511719 -30.636719 27.777344 -31.34375 C 27.042969 -32.050781 26.03125 -32.480469 24.917969 -32.480469 L 4.78125 -32.480469 C 3.667969 -32.480469 2.65625 -32.027344 1.949219 -31.316406 C 1.214844 -30.609375 0.785156 -29.621094 0.785156 -28.511719 C 0.785156 -27.371094 1.238281 -26.386719 1.949219 -25.675781 C 2.65625 -24.96875 3.667969 -24.539062 4.78125 -24.539062 L 10.953125 -24.539062 L 11.03125 -3.59375 C 11.03125 -2.480469 11.433594 -1.492188 12.117188 -0.785156 C 12.800781 -0.0742188 13.785156 0.378906 14.925781 0.378906 C 16.039062 0.378906 17 -0.0507812 17.707031 -0.785156 C 18.390625 -1.492188 18.796875 -2.480469 18.796875 -3.59375 L 18.898438 -24.539062 L 24.941406 -24.539062 C 26.054688 -24.539062 27.066406 -24.96875 27.800781 -25.703125 C 28.511719 -26.410156 28.964844 -27.398438 28.964844 -28.511719 Z M 28.964844 -28.511719 "/></g></g></g><g fill="#222222" fill-opacity="1"><g transform="translate(249.387071, 83.341431)"><g><path d="M 26.5625 -3.972656 C 26.5625 -5.085938 26.082031 -6.097656 25.375 -6.804688 C 24.640625 -7.511719 23.628906 -7.941406 22.589844 -7.941406 L 11.382812 -7.941406 L 11.382812 -28.585938 C 11.382812 -30.332031 10.726562 -31.394531 9.6875 -32.027344 C 8.652344 -32.632812 7.234375 -32.835938 5.71875 -32.835938 C 4.679688 -32.835938 4.023438 -32.683594 3.644531 -32.40625 C 3.238281 -32.101562 3.113281 -31.699219 3.113281 -31.191406 C 3.113281 -30.785156 3.164062 -30.355469 3.289062 -29.925781 C 3.390625 -29.496094 3.441406 -29.042969 3.464844 -28.609375 L 3.464844 -4.226562 C 3.464844 -3.035156 3.894531 -2 4.628906 -1.265625 C 5.335938 -0.53125 6.347656 -0.0234375 7.488281 0 L 22.84375 0 C 23.878906 0 24.816406 -0.429688 25.5 -1.136719 C 26.183594 -1.847656 26.5625 -2.859375 26.5625 -3.972656 Z M 26.5625 -3.972656 "/></g></g></g><g fill="#222222" fill-opacity="1"><g transform="translate(276.227296, 83.341431)"><g><path d="M 11.382812 -28.460938 C 11.28125 -30.105469 10.625 -31.089844 9.613281 -31.699219 C 8.601562 -32.277344 7.234375 -32.457031 5.71875 -32.457031 C 4.679688 -32.457031 4.023438 -32.304688 3.644531 -32.027344 C 3.238281 -31.722656 3.113281 -31.316406 3.113281 -30.8125 C 3.113281 -30.40625 3.164062 -29.976562 3.289062 -29.546875 C 3.390625 -29.117188 3.441406 -28.660156 3.464844 -28.230469 L 3.464844 -3.644531 C 3.464844 -2.554688 3.871094 -1.570312 4.578125 -0.835938 C 5.289062 -0.101562 6.25 0.378906 7.4375 0.378906 C 8.574219 0.378906 9.5625 -0.0742188 10.269531 -0.808594 C 10.980469 -1.542969 11.382812 -2.554688 11.382812 -3.644531 Z M 11.382812 -28.460938 "/></g></g></g><g fill="#222222" fill-opacity="1"><g transform="translate(289.735909, 83.341431)"><g><path d="M 3.492188 -3.667969 C 3.492188 -2.554688 3.894531 -1.542969 4.605469 -0.835938 C 5.3125 -0.101562 6.300781 0.378906 7.4375 0.378906 C 8.574219 0.378906 9.5625 -0.101562 10.269531 -0.835938 C 10.980469 -1.542969 11.382812 -2.554688 11.382812 -3.667969 L 11.382812 -11.359375 L 19.882812 -11.359375 C 20.972656 -11.359375 21.957031 -11.789062 22.667969 -12.496094 C 23.375 -13.207031 23.828125 -14.191406 23.828125 -15.332031 C 23.828125 -16.46875 23.375 -17.453125 22.667969 -18.085938 C 21.957031 -18.71875 20.972656 -19.097656 19.882812 -19.097656 L 11.382812 -19.097656 L 11.382812 -24.917969 L 23.527344 -24.917969 C 24.84375 -24.917969 25.828125 -25.421875 26.484375 -26.15625 C 27.144531 -26.890625 27.472656 -27.929688 27.449219 -28.941406 C 27.421875 -30.28125 26.839844 -31.167969 26.054688 -31.722656 C 25.273438 -32.277344 24.3125 -32.480469 23.527344 -32.480469 L 5.617188 -32.480469 C 4.605469 -32.480469 3.996094 -32.304688 3.617188 -32.027344 C 3.210938 -31.722656 3.113281 -31.316406 3.113281 -30.8125 C 3.113281 -30.382812 3.164062 -29.953125 3.289062 -29.496094 C 3.390625 -29.042969 3.464844 -28.585938 3.492188 -28.15625 Z M 3.492188 -3.667969 "/></g></g></g><g fill="#222222" fill-opacity="1"><g transform="translate(317.233865, 83.341431)"><g><path d="M 30.785156 -28.484375 C 30.785156 -29.496094 30.433594 -30.457031 29.648438 -31.242188 C 28.839844 -32.050781 27.777344 -32.480469 26.738281 -32.507812 C 25.703125 -32.507812 24.714844 -32.078125 24.03125 -31.242188 L 15.683594 -20.667969 L 7.3125 -31.242188 C 6.628906 -32.078125 5.617188 -32.507812 4.605469 -32.507812 C 3.566406 -32.480469 2.503906 -32.050781 1.71875 -31.242188 C 0.910156 -30.433594 0.554688 -29.472656 0.554688 -28.484375 C 0.554688 -27.472656 0.960938 -26.484375 1.695312 -25.652344 L 11.6875 -13.914062 L 11.6875 -3.566406 C 11.6875 -2.453125 12.117188 -1.46875 12.824219 -0.757812 C 13.535156 -0.0234375 14.546875 0.40625 15.660156 0.40625 C 16.773438 0.40625 17.757812 -0.0234375 18.46875 -0.757812 C 19.175781 -1.46875 19.628906 -2.453125 19.628906 -3.566406 L 19.628906 -13.964844 L 29.648438 -25.652344 C 30.382812 -26.460938 30.761719 -27.472656 30.785156 -28.484375 Z M 30.785156 -28.484375 "/></g></g></g></svg>