<svg xmlns="http://www.w3.org/2000/svg" xmlns:xlink="http://www.w3.org/1999/xlink" width="36" zoomAndPan="magnify" viewBox="0 0 375 374.999991" height="36" preserveAspectRatio="xMidYMid meet" version="1.0"><defs><clipPath id="b87124060c"><path d="M 81 1 L 320.816406 1 L 320.816406 346 L 81 346 Z M 81 1 " clip-rule="nonzero"/></clipPath><clipPath id="86cfe6001e"><path d="M 53.816406 317 L 111 317 L 111 374 L 53.816406 374 Z M 53.816406 317 " clip-rule="nonzero"/></clipPath></defs><path fill="#ffffff" d="M 215.628906 346.105469 C 215.628906 272.296875 155.753906 212.421875 81.945312 212.421875 L 81.945312 265.070312 C 126.59375 265.070312 162.980469 301.199219 162.980469 346.105469 Z M 215.628906 346.105469 " fill-opacity="1" fill-rule="evenodd"/><g clip-path="url(#b87124060c)"><path fill="#ffffff" d="M 250.46875 107.90625 C 256.660156 113.066406 260.015625 121.066406 259.757812 129.066406 C 259.242188 139.132812 253.308594 147.90625 244.015625 152.035156 C 236.273438 155.648438 227.242188 154.875 220.015625 150.746094 C 181.046875 123.128906 133.304688 106.871094 81.945312 106.871094 L 81.945312 159.519531 C 184.917969 159.519531 268.273438 242.875 268.273438 345.847656 L 320.921875 345.847656 C 320.921875 288.039062 300.535156 235.132812 266.46875 193.84375 C 282.726562 185.066406 295.113281 170.875 301.824219 154.097656 C 305.179688 145.839844 307.242188 137.066406 307.503906 127.777344 C 308.535156 101.195312 296.40625 76.160156 275.242188 60.675781 C 220.015625 23.257812 153.691406 1.320312 81.945312 1.320312 L 81.945312 53.96875 C 144.660156 53.96875 202.726562 73.839844 250.46875 107.386719 Z M 250.46875 107.90625 " fill-opacity="1" fill-rule="evenodd"/></g><g clip-path="url(#86cfe6001e)"><path fill="#5e17eb" d="M 81.945312 317.71875 C 66.460938 317.71875 53.816406 330.363281 53.816406 345.847656 C 53.816406 361.332031 66.460938 373.976562 81.945312 373.976562 C 97.429688 373.976562 110.078125 361.332031 110.078125 345.847656 C 110.078125 330.363281 97.429688 317.71875 81.945312 317.71875 Z M 81.945312 317.71875 " fill-opacity="1" fill-rule="evenodd"/></g></svg>